#!OML:ASF H:\MichaelJackson\Top Level 1\Subject 1\Session 1\male.ASF
:FULLY-SPECIFIED
:DEGREES
1389
root 4.38586 16.4292 21.2377 -344.99 -16.0709 9.81014
lowerback 1.3732 1.08396 -5.93741
upperback 0.307068 1.3579 -0.147912
thorax -0.588646 0.6882 3.14883
lowerneck -7.07492 -7.18903 -3.38338
upperneck 13.6667 -9.6515 2.33252
head 5.56452 -4.71421 0.594446
rclavicle -6.32135e-014 1.74931e-014
rhumerus -218.113 176.595 -265.69
rradius 96.821
rwrist -49.7204
rhand -20.4434 -23.2913
rfingers 7.12502
rthumb 5.91178 -413.189
lclavicle -6.32135e-014 1.74931e-014
lhumerus -84.0395 -21.7066 105.154
lradius 119.463
lwrist 22.7847
lhand 2.36392 17.3813
lfingers 7.12502
lthumb 27.8526 45.3367
rfemur -55.5846 -16.2793 9.92649
rtibia 45.8102
rfoot -3.13417 -0.0761446
rtoes -11.576
lfemur -14.8193 10.6899 -29.1323
ltibia 29.09
lfoot -27.9113 -4.75322
ltoes 26.3068
1390
root 4.33639 16.4162 21.2605 -345.081 -16.6434 9.78068
lowerback 1.66169 1.1197 -6.0751
upperback 0.425997 1.3863 -0.202516
thorax -0.632561 0.700968 3.16464
lowerneck -7.06748 -7.0259 -3.17888
upperneck 13.4977 -9.46073 2.4042
head 5.4982 -4.6083 0.603099
rclavicle -2.38542e-014 2.62396e-014
rhumerus -218.128 176.127 -266.053
rradius 96.0396
rwrist -48.0454
rhand -20.8068 -23.4198
rfingers 7.12502
rthumb 5.56086 -413.327
lclavicle -2.38542e-014 2.62396e-014
lhumerus -82.7671 -22.3306 105.261
lradius 119.125
lwrist 22.3164
lhand 1.66148 17.6542
lfingers 7.12502
lthumb 27.1808 45.7164
rfemur -55.9325 -16.0686 10.4333
rtibia 46.5072
rfoot -3.70042 -0.545608
rtoes -10.718
lfemur -14.5961 10.5522 -29.0502
ltibia 29.1735
lfoot -28.1377 -3.69817
ltoes 25.158
1391
root 4.2841 16.4048 21.2859 -345.193 -17.1133 9.72593
lowerback 1.94893 1.11776 -6.15467
upperback 0.549836 1.36505 -0.25728
thorax -0.66434 0.688341 3.14913
lowerneck -7.05312 -6.85354 -2.97136
upperneck 13.3706 -9.25828 2.46895
head 5.44337 -4.49694 0.609099
rclavicle 2.18663e-014 1.11319e-014
rhumerus -218.167 175.603 -266.481
rradius 95.0978
rwrist -46.1113
rhand -21.41 -23.6977
rfingers 7.12502
rthumb 4.97845 -413.619
lclavicle 2.18663e-014 1.11319e-014
lhumerus -81.5213 -22.9931 105.385
lradius 118.795
lwrist 21.8974
lhand 0.809572 18.0335
lfingers 7.12502
lthumb 26.3656 46.2205
rfemur -56.1013 -15.8419 10.9073
rtibia 47.0905
rfoot -4.30452 -1.12435
rtoes -9.8409
lfemur -14.3493 10.3056 -28.918
ltibia 29.3037
lfoot -28.3461 -2.53099
ltoes 23.7821
1392
root 4.22891 16.3959 21.3148 -345.299 -17.4453 9.62025
lowerback 2.21661 1.06828 -6.1426
upperback 0.671834 1.28355 -0.301387
thorax -0.679203 0.645102 3.09578
lowerneck -7.03756 -6.67404 -2.76266
upperneck 13.296 -9.04625 2.52089
head 5.40415 -4.38138 0.6104
rclavicle 4.77083e-015 -2.78299e-014
rhumerus -218.234 175.024 -266.965
rradius 93.9981
rwrist -43.8617
rhand -22.2263 -24.145
rfingers 7.12502
rthumb 4.19028 -414.084
lclavicle 4.77083e-015 -2.78299e-014
lhumerus -80.3046 -23.6884 105.51
lradius 118.494
lwrist 21.5386
lhand -0.0795687 18.5489
lfingers 7.12502
lthumb 25.5142 46.8606
rfemur -56.0732 -15.6223 11.3723
rtibia 47.5073
rfoot -4.91996 -1.76982
rtoes -9.0772
lfemur -14.1074 9.96429 -28.7057
ltibia 29.5017
lfoot -28.5265 -1.31124
ltoes 22.2139
1393
root 4.17081 16.3905 21.3477 -345.371 -17.6242 9.43434
lowerback 2.44952 0.969276 -6.01144
upperback 0.783111 1.14147 -0.320637
thorax -0.678118 0.57145 3.0044
lowerneck -7.03065 -6.49088 -2.55925
upperneck 13.2836 -8.82762 2.55169
head 5.38526 -4.26361 0.604767
rclavicle -1.03368e-014 1.43125e-014
rhumerus -218.34 174.384 -267.492
rradius 92.7551
rwrist -41.2707
rhand -23.1862 -24.7757
rfingers 7.12502
rthumb 3.26332 -414.73
lclavicle -1.03368e-014 1.43125e-014
lhumerus -79.1089 -24.4075 105.629
lradius 118.246
lwrist 21.2514
lhand -0.903022 19.1873
lfingers 7.12502
lthumb 24.7252 47.6095
rfemur -55.8536 -15.4194 11.858
rtibia 47.7222
rfoot -5.5392 -2.46063
rtoes -8.41167
lfemur -13.9092 9.55238 -28.384
ltibia 29.7977
lfoot -28.6763 -0.096104
ltoes 20.5102
1394
root 4.10998 16.3888 21.3846 -345.392 -17.655 9.15178
lowerback 2.64123 0.828804 -5.75052
upperback 0.877402 0.950827 -0.30639
thorax -0.66624 0.473814 2.87761
lowerneck -7.03113 -6.30963 -2.36932
upperneck 13.332 -8.60943 2.56383
head 5.3867 -4.1472 0.593917
rclavicle 6.36111e-015 7.95139e-015
rhumerus -218.501 173.694 -268.046
rradius 91.3977
rwrist -38.3191
rhand -24.2744 -25.6248
rfingers 7.12502
rthumb 2.21232 -415.593
lclavicle 6.36111e-015 7.95139e-015
lhumerus -77.9218 -25.1516 105.744
lradius 118.073
lwrist 21.0387
lhand -1.56281 19.9144
lfingers 7.12502
lthumb 24.0927 48.4218
rfemur -55.4648 -15.2395 12.3879
rtibia 47.7276
rfoot -6.14324 -3.15487
rtoes -7.93896
lfemur -13.7919 9.1136 -27.9378
ltibia 30.2338
lfoot -28.7964 1.04565
ltoes 18.7652
1395
root 4.04679 16.391 21.4249 -345.353 -17.5601 8.7667
lowerback 2.79129 0.656727 -5.3708
upperback 0.9531 0.724879 -0.248839
thorax -0.647917 0.359058 2.73095
lowerneck -7.04814 -6.1335 -2.20237
upperneck 13.4381 -8.39451 2.55638
head 5.40956 -4.03391 0.578723
rclavicle -2.74323e-014 2.94201e-014
rhumerus -218.725 172.959 -268.602
rradius 89.9594
rwrist -35.0152
rhand -25.3898 -26.6712
rfingers 7.12502
rthumb 1.13514 -416.648
lclavicle -2.74323e-014 2.94201e-014
lhumerus -76.7126 -25.9055 105.848
lradius 117.99
lwrist 20.9031
lhand -1.96921 20.6624
lfingers 7.12502
lthumb 23.7029 49.2209
rfemur -54.9498 -15.0853 12.9802
rtibia 47.5446
rfoot -6.708 -3.80432
rtoes -7.57493
lfemur -13.7971 8.67993 -27.3653
ltibia 30.8633
lfoot -28.8826 2.0706
ltoes 17.0967
1396
root 3.98203 16.3965 21.4674 -345.25 -17.3806 8.28441
lowerback 2.90944 0.468225 -4.89767
upperback 1.00054 0.482323 -0.141957
thorax -0.641695 0.237138 2.58369
lowerneck -7.06011 -5.96358 -2.07562
upperneck 13.5831 -8.18322 2.53859
head 5.44539 -3.92463 0.565882
rclavicle -7.43455e-014 -6.36111e-015
rhumerus -219.036 172.189 -269.139
rradius 88.4735
rwrist -31.3972
rhand -26.4409 -27.8674
rfingers 7.12502
rthumb 0.119885 -417.847
lclavicle -7.43455e-014 -6.36111e-015
lhumerus -75.4681 -26.6417 105.942
lradius 118.011
lwrist 20.8171
lhand -2.05709 21.3637
lfingers 7.12502
lthumb 23.6186 49.933
rfemur -54.3718 -14.9517 13.6456
rtibia 47.2183
rfoot -7.21171 -4.37464
rtoes -7.29028
lfemur -13.9708 8.28812 -26.6824
ltibia 31.7465
lfoot -28.9196 2.97711
ltoes 15.5588
